<svg preserveAspectRatio="none" overflow="visible" style="display: block;" width="317.432" height="317.432" viewBox="0 0 317.432 317.432" fill="none" xmlns="http://www.w3.org/2000/svg">
<g id="Group">
<path id="Vector" d="M291.121 158.716H316.584" stroke="#C2C2C2" stroke-width="1.6975" stroke-linecap="round"/>
<path id="Vector_2" d="M299.303 167.934L316.244 169.037" stroke="#C2C2C2" stroke-width="1.6975" stroke-linecap="round"/>
<path id="Vector_3" d="M298.404 177.1L315.226 179.324" stroke="#C2C2C2" stroke-width="1.6975" stroke-linecap="round"/>
<path id="Vector_4" d="M296.91 186.199L313.545 189.509" stroke="#C2C2C2" stroke-width="1.6975" stroke-linecap="round"/>
<path id="Vector_5" d="M294.805 195.179L311.203 199.575" stroke="#C2C2C2" stroke-width="1.6975" stroke-linecap="round"/>
<path id="Vector_6" d="M292.14 204.006L308.198 209.455" stroke="#C2C2C2" stroke-width="1.6975" stroke-linecap="round"/>
<path id="Vector_7" d="M288.881 212.629L304.565 219.13" stroke="#C2C2C2" stroke-width="1.6975" stroke-linecap="round"/>
<path id="Vector_8" d="M285.078 221.031L300.305 228.534" stroke="#C2C2C2" stroke-width="1.6975" stroke-linecap="round"/>
<path id="Vector_9" d="M273.382 224.919L295.433 237.65" stroke="#C2C2C2" stroke-width="1.6975" stroke-linecap="round"/>
<path id="Vector_10" d="M275.861 236.988L289.984 246.426" stroke="#C2C2C2" stroke-width="1.6975" stroke-linecap="round"/>
<path id="Vector_11" d="M270.497 244.491L283.958 254.812" stroke="#C2C2C2" stroke-width="1.6975" stroke-linecap="round"/>
<path id="Vector_12" d="M264.64 251.62L277.405 262.807" stroke="#C2C2C2" stroke-width="1.6975" stroke-linecap="round"/>
<path id="Vector_13" d="M258.343 258.343L270.344 270.344" stroke="#C2C2C2" stroke-width="1.6975" stroke-linecap="round"/>
<path id="Vector_14" d="M251.62 264.64L262.807 277.405" stroke="#C2C2C2" stroke-width="1.6975" stroke-linecap="round"/>
<path id="Vector_15" d="M244.491 270.497L254.812 283.958" stroke="#C2C2C2" stroke-width="1.6975" stroke-linecap="round"/>
<path id="Vector_16" d="M236.988 275.861L246.426 289.984" stroke="#C2C2C2" stroke-width="1.6975" stroke-linecap="round"/>
<path id="Vector_17" d="M224.919 273.382L237.65 295.433" stroke="#C2C2C2" stroke-width="1.6975" stroke-linecap="round"/>
<path id="Vector_18" d="M221.031 285.078L228.534 300.305" stroke="#C2C2C2" stroke-width="1.6975" stroke-linecap="round"/>
<path id="Vector_19" d="M212.629 288.881L219.13 304.565" stroke="#C2C2C2" stroke-width="1.6975" stroke-linecap="round"/>
<path id="Vector_20" d="M204.006 292.14L209.455 308.198" stroke="#C2C2C2" stroke-width="1.6975" stroke-linecap="round"/>
<path id="Vector_21" d="M195.179 294.805L199.575 311.203" stroke="#C2C2C2" stroke-width="1.6975" stroke-linecap="round"/>
<path id="Vector_22" d="M186.199 296.91L189.509 313.545" stroke="#C2C2C2" stroke-width="1.6975" stroke-linecap="round"/>
<path id="Vector_23" d="M177.1 298.404L179.324 315.226" stroke="#C2C2C2" stroke-width="1.6975" stroke-linecap="round"/>
<path id="Vector_24" d="M167.934 299.303L169.037 316.244" stroke="#C2C2C2" stroke-width="1.6975" stroke-linecap="round"/>
<path id="Vector_25" d="M158.716 291.121V316.584" stroke="#C2C2C2" stroke-width="1.6975" stroke-linecap="round"/>
<path id="Vector_26" d="M149.499 299.303L148.395 316.244" stroke="#C2C2C2" stroke-width="1.6975" stroke-linecap="round"/>
<path id="Vector_27" d="M140.332 298.404L138.109 315.226" stroke="#C2C2C2" stroke-width="1.6975" stroke-linecap="round"/>
<path id="Vector_28" d="M131.234 296.91L127.924 313.545" stroke="#C2C2C2" stroke-width="1.6975" stroke-linecap="round"/>
<path id="Vector_29" d="M122.254 294.805L117.857 311.203" stroke="#C2C2C2" stroke-width="1.6975" stroke-linecap="round"/>
<path id="Vector_30" d="M113.427 292.14L107.978 308.198" stroke="#C2C2C2" stroke-width="1.6975" stroke-linecap="round"/>
<path id="Vector_31" d="M104.804 288.881L98.3022 304.565" stroke="#C2C2C2" stroke-width="1.6975" stroke-linecap="round"/>
<path id="Vector_32" d="M96.401 285.078L88.8981 300.305" stroke="#C2C2C2" stroke-width="1.6975" stroke-linecap="round"/>
<path id="Vector_33" d="M92.5138 273.382L79.7825 295.433" stroke="#C2C2C2" stroke-width="1.6975" stroke-linecap="round"/>
<path id="Vector_34" d="M80.4445 275.861L71.0064 289.984" stroke="#C2C2C2" stroke-width="1.6975" stroke-linecap="round"/>
<path id="Vector_35" d="M72.9416 270.497L62.6208 283.958" stroke="#C2C2C2" stroke-width="1.6975" stroke-linecap="round"/>
<path id="Vector_36" d="M65.8121 264.64L54.6256 277.405" stroke="#C2C2C2" stroke-width="1.6975" stroke-linecap="round"/>
<path id="Vector_37" d="M59.09 258.343L47.0887 270.344" stroke="#C2C2C2" stroke-width="1.6975" stroke-linecap="round"/>
<path id="Vector_38" d="M52.7922 251.62L40.027 262.807" stroke="#C2C2C2" stroke-width="1.6975" stroke-linecap="round"/>
<path id="Vector_39" d="M46.9359 244.491L33.4747 254.812" stroke="#C2C2C2" stroke-width="1.6975" stroke-linecap="round"/>
<path id="Vector_40" d="M41.5718 236.988L27.4486 246.426" stroke="#C2C2C2" stroke-width="1.6975" stroke-linecap="round"/>
<path id="Vector_41" d="M44.0501 224.919L21.9996 237.65" stroke="#C2C2C2" stroke-width="1.6975" stroke-linecap="round"/>
<path id="Vector_42" d="M32.3543 221.031L17.1278 228.534" stroke="#C2C2C2" stroke-width="1.6975" stroke-linecap="round"/>
<path id="Vector_43" d="M28.5519 212.629L12.8671 219.13" stroke="#C2C2C2" stroke-width="1.6975" stroke-linecap="round"/>
<path id="Vector_44" d="M25.2927 204.006L9.2344 209.455" stroke="#C2C2C2" stroke-width="1.6975" stroke-linecap="round"/>
<path id="Vector_45" d="M22.6277 195.179L6.22983 199.575" stroke="#C2C2C2" stroke-width="1.6975" stroke-linecap="round"/>
<path id="Vector_46" d="M20.5228 186.199L3.88728 189.509" stroke="#C2C2C2" stroke-width="1.6975" stroke-linecap="round"/>
<path id="Vector_47" d="M19.029 177.1L2.20675 179.324" stroke="#C2C2C2" stroke-width="1.6975" stroke-linecap="round"/>
<path id="Vector_48" d="M18.1293 167.934L1.18825 169.037" stroke="#C2C2C2" stroke-width="1.6975" stroke-linecap="round"/>
<path id="Vector_49" d="M26.3112 158.716H0.84875" stroke="#C2C2C2" stroke-width="1.6975" stroke-linecap="round"/>
<path id="Vector_50" d="M18.1293 149.499L1.18825 148.395" stroke="#C2C2C2" stroke-width="1.6975" stroke-linecap="round"/>
<path id="Vector_51" d="M19.029 140.332L2.20675 138.109" stroke="#C2C2C2" stroke-width="1.6975" stroke-linecap="round"/>
<path id="Vector_52" d="M20.5228 131.234L3.88728 127.924" stroke="#C2C2C2" stroke-width="1.6975" stroke-linecap="round"/>
<path id="Vector_53" d="M22.6277 122.254L6.22983 117.857" stroke="#C2C2C2" stroke-width="1.6975" stroke-linecap="round"/>
<path id="Vector_54" d="M25.2927 113.427L9.2344 107.978" stroke="#C2C2C2" stroke-width="1.6975" stroke-linecap="round"/>
<path id="Vector_55" d="M28.5519 104.804L12.8671 98.3022" stroke="#C2C2C2" stroke-width="1.6975" stroke-linecap="round"/>
<path id="Vector_56" d="M32.3543 96.401L17.1278 88.8981" stroke="#C2C2C2" stroke-width="1.6975" stroke-linecap="round"/>
<path id="Vector_57" d="M44.0501 92.5138L21.9996 79.7825" stroke="#C2C2C2" stroke-width="1.6975" stroke-linecap="round"/>
<path id="Vector_58" d="M41.5718 80.4445L27.4486 71.0064" stroke="#C2C2C2" stroke-width="1.6975" stroke-linecap="round"/>
<path id="Vector_59" d="M46.9359 72.9416L33.4747 62.6208" stroke="#C2C2C2" stroke-width="1.6975" stroke-linecap="round"/>
<path id="Vector_60" d="M52.7922 65.8121L40.027 54.6255" stroke="#C2C2C2" stroke-width="1.6975" stroke-linecap="round"/>
<path id="Vector_61" d="M59.09 59.09L47.0887 47.0887" stroke="#C2C2C2" stroke-width="1.6975" stroke-linecap="round"/>
<path id="Vector_62" d="M65.8121 52.7922L54.6256 40.027" stroke="#C2C2C2" stroke-width="1.6975" stroke-linecap="round"/>
<path id="Vector_63" d="M72.9416 46.9359L62.6208 33.4747" stroke="#C2C2C2" stroke-width="1.6975" stroke-linecap="round"/>
<path id="Vector_64" d="M80.4445 41.5718L71.0064 27.4486" stroke="#C2C2C2" stroke-width="1.6975" stroke-linecap="round"/>
<path id="Vector_65" d="M92.5138 44.0501L79.7825 21.9996" stroke="#C2C2C2" stroke-width="1.6975" stroke-linecap="round"/>
<path id="Vector_66" d="M96.401 32.3543L88.8981 17.1278" stroke="#C2C2C2" stroke-width="1.6975" stroke-linecap="round"/>
<path id="Vector_67" d="M104.804 28.5519L98.3022 12.867" stroke="#C2C2C2" stroke-width="1.6975" stroke-linecap="round"/>
<path id="Vector_68" d="M113.427 25.2927L107.978 9.2344" stroke="#C2C2C2" stroke-width="1.6975" stroke-linecap="round"/>
<path id="Vector_69" d="M122.254 22.6277L117.857 6.22983" stroke="#C2C2C2" stroke-width="1.6975" stroke-linecap="round"/>
<path id="Vector_70" d="M131.234 20.5228L127.924 3.88728" stroke="#C2C2C2" stroke-width="1.6975" stroke-linecap="round"/>
<path id="Vector_71" d="M140.332 19.029L138.109 2.20675" stroke="#C2C2C2" stroke-width="1.6975" stroke-linecap="round"/>
<path id="Vector_72" d="M149.499 18.1293L148.395 1.18825" stroke="#C2C2C2" stroke-width="1.6975" stroke-linecap="round"/>
<path id="Vector_73" d="M158.716 26.3112V0.84875" stroke="#C2C2C2" stroke-width="1.6975" stroke-linecap="round"/>
<path id="Vector_74" d="M167.934 18.1293L169.037 1.18825" stroke="#C2C2C2" stroke-width="1.6975" stroke-linecap="round"/>
<path id="Vector_75" d="M177.1 19.029L179.324 2.20675" stroke="#C2C2C2" stroke-width="1.6975" stroke-linecap="round"/>
<path id="Vector_76" d="M186.199 20.5228L189.509 3.88728" stroke="#C2C2C2" stroke-width="1.6975" stroke-linecap="round"/>
<path id="Vector_77" d="M195.179 22.6277L199.575 6.22983" stroke="#C2C2C2" stroke-width="1.6975" stroke-linecap="round"/>
<path id="Vector_78" d="M204.006 25.2927L209.455 9.2344" stroke="#C2C2C2" stroke-width="1.6975" stroke-linecap="round"/>
<path id="Vector_79" d="M212.629 28.5519L219.13 12.867" stroke="#C2C2C2" stroke-width="1.6975" stroke-linecap="round"/>
<path id="Vector_80" d="M221.031 32.3543L228.534 17.1278" stroke="#C2C2C2" stroke-width="1.6975" stroke-linecap="round"/>
<path id="Vector_81" d="M224.919 44.0501L237.65 21.9996" stroke="#C2C2C2" stroke-width="1.6975" stroke-linecap="round"/>
<path id="Vector_82" d="M236.988 41.5718L246.426 27.4486" stroke="#C2C2C2" stroke-width="1.6975" stroke-linecap="round"/>
<path id="Vector_83" d="M244.491 46.9359L254.812 33.4747" stroke="#C2C2C2" stroke-width="1.6975" stroke-linecap="round"/>
<path id="Vector_84" d="M251.62 52.7922L262.807 40.027" stroke="#C2C2C2" stroke-width="1.6975" stroke-linecap="round"/>
<path id="Vector_85" d="M258.343 59.09L270.344 47.0887" stroke="#C2C2C2" stroke-width="1.6975" stroke-linecap="round"/>
<path id="Vector_86" d="M264.64 65.8121L277.405 54.6255" stroke="#C2C2C2" stroke-width="1.6975" stroke-linecap="round"/>
<path id="Vector_87" d="M270.497 72.9416L283.958 62.6208" stroke="#C2C2C2" stroke-width="1.6975" stroke-linecap="round"/>
<path id="Vector_88" d="M275.861 80.4445L289.984 71.0064" stroke="#C2C2C2" stroke-width="1.6975" stroke-linecap="round"/>
<path id="Vector_89" d="M273.382 92.5138L295.433 79.7825" stroke="#C2C2C2" stroke-width="1.6975" stroke-linecap="round"/>
<path id="Vector_90" d="M285.078 96.401L300.305 88.8981" stroke="#C2C2C2" stroke-width="1.6975" stroke-linecap="round"/>
<path id="Vector_91" d="M288.881 104.804L304.565 98.3022" stroke="#C2C2C2" stroke-width="1.6975" stroke-linecap="round"/>
<path id="Vector_92" d="M292.14 113.427L308.198 107.978" stroke="#C2C2C2" stroke-width="1.6975" stroke-linecap="round"/>
<path id="Vector_93" d="M294.805 122.254L311.203 117.857" stroke="#C2C2C2" stroke-width="1.6975" stroke-linecap="round"/>
<path id="Vector_94" d="M296.91 131.234L313.545 127.924" stroke="#C2C2C2" stroke-width="1.6975" stroke-linecap="round"/>
<path id="Vector_95" d="M298.404 140.332L315.226 138.109" stroke="#C2C2C2" stroke-width="1.6975" stroke-linecap="round"/>
<path id="Vector_96" d="M299.303 149.499L316.244 148.395" stroke="#C2C2C2" stroke-width="1.6975" stroke-linecap="round"/>
</g>
</svg>
